<?xml version="1.0" encoding="UTF-8" standalone="no"?>
<?xml-stylesheet type="text/css" href="svg.css" ?>
<svg width="1024px" height="768px" viewBox="0 0 1024 768" version="1.1" xmlns="http://www.w3.org/2000/svg" xmlns:xlink="http://www.w3.org/1999/xlink" style="background: #FDF6E3;">
    <!-- Generator: Sketch 40.1 (33804) - http://www.bohemiancoding.com/sketch -->
    <title>iteration-08-warning</title>
    <desc>Created with Sketch.</desc>
    <defs>
        <rect id="path-1" x="91" y="30" width="204" height="80"></rect>
        <mask id="mask-2" maskContentUnits="userSpaceOnUse" maskUnits="objectBoundingBox" x="-4" y="-4" width="212" height="88">
            <rect x="87" y="26" width="212" height="88" fill="white"></rect>
            <use xlink:href="#path-1" fill="black"></use>
        </mask>
        <rect id="path-3" x="228" y="30" width="12" height="80"></rect>
        <mask id="mask-4" maskContentUnits="userSpaceOnUse" maskUnits="objectBoundingBox" x="0" y="0" width="12" height="80" fill="white">
            <use xlink:href="#path-3"></use>
        </mask>
        <rect id="path-5" x="3.59493671" y="30" width="204" height="80"></rect>
        <mask id="mask-6" maskContentUnits="userSpaceOnUse" maskUnits="objectBoundingBox" x="-4" y="-4" width="212" height="88">
            <rect x="-0.405063291" y="26" width="212" height="88" fill="white"></rect>
            <use xlink:href="#path-5" fill="black"></use>
        </mask>
        <rect id="path-7" x="75.5949367" y="30" width="12" height="80"></rect>
        <mask id="mask-8" maskContentUnits="userSpaceOnUse" maskUnits="objectBoundingBox" x="0" y="0" width="12" height="80" fill="white">
            <use xlink:href="#path-7"></use>
        </mask>
        <rect id="path-9" x="91" y="30" width="204" height="80"></rect>
        <mask id="mask-10" maskContentUnits="userSpaceOnUse" maskUnits="objectBoundingBox" x="-4" y="-4" width="212" height="88">
            <rect x="87" y="26" width="212" height="88" fill="white"></rect>
            <use xlink:href="#path-9" fill="black"></use>
        </mask>
        <rect id="path-11" x="191" y="30" width="12" height="80"></rect>
        <mask id="mask-12" maskContentUnits="userSpaceOnUse" maskUnits="objectBoundingBox" x="0" y="0" width="12" height="80" fill="white">
            <use xlink:href="#path-11"></use>
        </mask>
        <rect id="path-13" x="3.59493671" y="30" width="204" height="80"></rect>
        <mask id="mask-14" maskContentUnits="userSpaceOnUse" maskUnits="objectBoundingBox" x="-4" y="-4" width="212" height="88">
            <rect x="-0.405063291" y="26" width="212" height="88" fill="white"></rect>
            <use xlink:href="#path-13" fill="black"></use>
        </mask>
        <rect id="path-15" x="181.594937" y="30" width="12" height="80"></rect>
        <mask id="mask-16" maskContentUnits="userSpaceOnUse" maskUnits="objectBoundingBox" x="0" y="0" width="12" height="80" fill="white">
            <use xlink:href="#path-15"></use>
        </mask>
        <rect id="path-17" x="91" y="30" width="204" height="80"></rect>
        <mask id="mask-18" maskContentUnits="userSpaceOnUse" maskUnits="objectBoundingBox" x="-4" y="-4" width="212" height="88">
            <rect x="87" y="26" width="212" height="88" fill="white"></rect>
            <use xlink:href="#path-17" fill="black"></use>
        </mask>
        <rect id="path-19" x="203.004219" y="30" width="12" height="80"></rect>
        <mask id="mask-20" maskContentUnits="userSpaceOnUse" maskUnits="objectBoundingBox" x="0" y="0" width="12" height="80" fill="white">
            <use xlink:href="#path-19"></use>
        </mask>
    </defs>
    <g id="Page-1" stroke="none" stroke-width="1" fill="none" fill-rule="evenodd">
        <g id="iteration-08-warning">
            <g id="i279-readout" transform="translate(905.000000, 663.000000)">
                <rect id="i279-readout-bg" fill="#EEE8D5" x="0" y="0" width="94" height="80"></rect>
                <text id="mph" font-family="Overpass-Reg, Overpass" font-size="18" font-weight="normal" fill="#073642">
                    <tspan x="29.215332" y="69">mph</tspan>
                </text>
                <text id="i279-readout-text" font-family="Overpass-Reg, Overpass" font-size="36" font-weight="normal" fill="#073642">
                    <tspan x="24.3945312" y="43">50</tspan>
                </text>
            </g>
            <g id="bridge-readout" transform="translate(905.000000, 533.000000)">
                <rect id="bridge-readout-bg" fill="#EEE8D5" x="0" y="0" width="94" height="80"></rect>
                <text id="mm" font-family="Overpass-Reg, Overpass" font-size="18" font-weight="normal" fill="#073642">
                    <tspan x="31.7158203" y="69">mm</tspan>
                </text>
                <text id="bridge-readout-text" font-family="Overpass-Reg, Overpass" font-size="36" font-weight="normal" fill="#073642">
                    <tspan x="26.4423828" y="43">37</tspan>
                </text>
            </g>
            <g id="tunnel-readout" transform="translate(905.000000, 403.000000)">
                <rect id="tunnel-readout-bg" fill="#EEE8D5" x="0" y="0" width="94" height="80"></rect>
                <text id="mph" font-family="Overpass-Reg, Overpass" font-size="18" font-weight="normal" fill="#073642">
                    <tspan x="29.215332" y="69">mph</tspan>
                </text>
                <text id="tunnel-readout-text" font-family="Overpass-Reg, Overpass" font-size="36" font-weight="normal" fill="#073642">
                    <tspan x="25.1855469" y="43">55</tspan>
                </text>
            </g>
            <g id="greentree-readout" transform="translate(905.000000, 273.000000)">
                <rect id="greentree-readout-bg" fill-opacity="0.4" fill="#B58900" x="0" y="0" width="94" height="80"></rect>
                <text id="cars/hr" font-family="Overpass-Reg, Overpass" font-size="18" font-weight="normal" fill="#073642">
                    <tspan x="16.4799805" y="69">cars/hr</tspan>
                </text>
                <text id="greentree-readout-text" font-family="Overpass-Reg, Overpass" font-size="36" font-weight="normal" fill="#073642">
                    <tspan x="23.7089844" y="43">44</tspan>
                </text>
            </g>
            <g id="river-readout" transform="translate(905.000000, 143.000000)">
                <rect id="river-readout-bg" fill="#EEE8D5" x="0" y="0" width="94" height="80"></rect>
                <text id="feet" font-family="Overpass-Reg, Overpass" font-size="18" font-weight="normal" fill="#073642">
                    <tspan x="30.7314453" y="69">feet</tspan>
                </text>
                <text id="river-readout-value" font-family="Overpass-Reg, Overpass" font-size="36" font-weight="normal" fill="#073642">
                    <tspan x="30.0634766" y="43">17</tspan>
                </text>
            </g>
            <g id="i279-meter" transform="translate(507.000000, 632.000000)">
                <path d="M0,110 L388,110" id="Line" stroke="#979797" stroke-linecap="square"></path>
                <path d="M0,30 L388,30" id="Line" stroke="#979797" stroke-linecap="square"></path>
                <g id="i279-meter-bg">
                    <use fill="#EEE8D5" fill-rule="evenodd" xlink:href="#path-1"></use>
                    <use stroke="#586E75" mask="url(#mask-2)" stroke-width="8" xlink:href="#path-1"></use>
                </g>
                <use id="i279-meter-bar" stroke="#586E75" mask="url(#mask-4)" stroke-width="2" fill="#586E75" xlink:href="#path-3"></use>
                <text id="30-mph" font-family="Overpass-Reg, Overpass" font-size="18" font-weight="normal" fill="#073642">
                    <tspan x="88" y="17">30 mph</tspan>
                </text>
                <text id="60-mph" font-family="Overpass-Reg, Overpass" font-size="18" font-weight="normal" fill="#073642">
                    <tspan x="287" y="17">60 mph</tspan>
                </text>
            </g>
            <g id="bridge-meter" transform="translate(594.405063, 502.000000)">
                <path d="M5.092827,30 L300.594937,30" id="Line" stroke="#979797" stroke-linecap="square"></path>
                <path d="M5.092827,110 L300.594937,110" id="Line" stroke="#979797" stroke-linecap="square"></path>
                <g id="bridge-meter-bg">
                    <use fill="#EEE8D5" fill-rule="evenodd" xlink:href="#path-5"></use>
                    <use stroke="#586E75" mask="url(#mask-6)" stroke-width="8" xlink:href="#path-5"></use>
                </g>
                <use id="bridge-meter-bar" stroke="#586E75" mask="url(#mask-8)" stroke-width="2" fill="#586E75" xlink:href="#path-7"></use>
                <text id="0-mm" font-family="Overpass-Reg, Overpass" font-size="18" font-weight="normal" fill="#073642">
                    <tspan x="0.594936709" y="17">0 mm</tspan>
                </text>
                <text id="100-mm" font-family="Overpass-Reg, Overpass" font-size="18" font-weight="normal" fill="#073642">
                    <tspan x="199.594937" y="17">100 mm</tspan>
                </text>
            </g>
            <g id="tunnel-meter" transform="translate(507.000000, 372.000000)">
                <path d="M0,110 L388,110" id="Line" stroke="#979797" stroke-linecap="square"></path>
                <path d="M0,30 L388,30" id="Line" stroke="#979797" stroke-linecap="square"></path>
                <g id="tunnel-meter-bg">
                    <use fill="#EEE8D5" fill-rule="evenodd" xlink:href="#path-9"></use>
                    <use stroke="#586E75" mask="url(#mask-10)" stroke-width="8" xlink:href="#path-9"></use>
                </g>
                <use id="tunnel-meter-bar" stroke="#586E75" mask="url(#mask-12)" stroke-width="2" fill="#586E75" xlink:href="#path-11"></use>
                <text id="25-mph" font-family="Overpass-Reg, Overpass" font-size="18" font-weight="normal" fill="#073642">
                    <tspan x="88" y="17">25 mph</tspan>
                </text>
                <text id="80-mph" font-family="Overpass-Reg, Overpass" font-size="18" font-weight="normal" fill="#073642">
                    <tspan x="287" y="17">80 mph</tspan>
                </text>
            </g>
            <g id="greentree-meter" transform="translate(594.405063, 242.000000)">
                <path d="M4.2742616,110 L300.594937,110" id="Line" stroke="#979797" stroke-linecap="square"></path>
                <path d="M4.2742616,30 L300.594937,30" id="Line" stroke="#979797" stroke-linecap="square"></path>
                <g id="greentree-meter-bg">
                    <use fill-opacity="0.4" fill="#B58900" fill-rule="evenodd" xlink:href="#path-13"></use>
                    <use stroke="#586E75" mask="url(#mask-14)" stroke-width="8" xlink:href="#path-13"></use>
                </g>
                <use id="greentree-meter-bar" stroke="#586E75" mask="url(#mask-16)" stroke-width="2" fill="#586E75" xlink:href="#path-15"></use>
                <text id="0-cars/hr" font-family="Overpass-Reg, Overpass" font-size="18" font-weight="normal" fill="#073642">
                    <tspan x="0.594936709" y="17">0 cars/hr</tspan>
                </text>
                <text id="50-cars/hr" font-family="Overpass-Reg, Overpass" font-size="18" font-weight="normal" fill="#073642">
                    <tspan x="199.594937" y="17">50 cars/hr</tspan>
                </text>
            </g>
            <g id="river-meter" transform="translate(507.000000, 112.000000)">
                <path d="M2.27373675e-13,110 L388,110" id="Line" stroke="#979797" stroke-linecap="square"></path>
                <path d="M2.27373675e-13,30 L388,30" id="Line" stroke="#979797" stroke-linecap="square"></path>
                <g id="river-meter-bg">
                    <use fill="#EEE8D5" fill-rule="evenodd" xlink:href="#path-17"></use>
                    <use stroke="#586E75" mask="url(#mask-18)" stroke-width="8" xlink:href="#path-17"></use>
                </g>
                <use id="river-meter-bar" stroke="#586E75" mask="url(#mask-20)" stroke-width="2" fill="#586E75" xlink:href="#path-19"></use>
                <text id="16-feet" font-family="Overpass-Reg, Overpass" font-size="18" font-weight="normal" fill="#073642">
                    <tspan x="88" y="17">16 feet</tspan>
                </text>
                <text id="18-feet" font-family="Overpass-Reg, Overpass" font-size="18" font-weight="normal" fill="#073642">
                    <tspan x="287" y="17">18 feet</tspan>
                </text>
            </g>
            <g id="i279-icon" transform="translate(352.000000, 663.000000)">
                <rect id="i279-icon-bg" fill="#EEE8D5" x="0" y="0" width="94" height="80"></rect>
                <g id="road-with-broken-line" transform="translate(10.000000, 7.000000)" fill="#073642">
                    <g id="Group">
                        <path d="M61.0220484,65.3260691 C61.2868717,66.3257234 62.1936852,66.9868138 63.1865036,66.9868138 C63.3751768,66.9868138 63.5672542,66.9629362 63.7582567,66.9128644 C64.9544407,66.5996037 65.6688184,65.3813085 65.3536465,64.1917021 L48.8256659,1.76961968 C48.5104939,0.579835106 47.2852833,-0.131327128 46.0894576,0.182824468 C44.8932736,0.496085106 44.1788959,1.71438032 44.4940678,2.9039867 L61.0220484,65.3260691 L61.0220484,65.3260691 Z" id="Shape"></path>
                        <path d="M10.1586053,66.9130426 C10.3496077,66.9631144 10.5415061,66.986992 10.7303584,66.986992 C11.7229976,66.986992 12.6301695,66.3257234 12.8948136,65.3262473 L29.4229734,2.90380851 C29.7379661,1.71420213 29.0235884,0.495906915 27.8274044,0.182646277 C26.6313995,-0.131148936 25.4061889,0.579835106 25.0911961,1.76944149 L8.56285714,64.1918803 C8.24804358,65.3814867 8.96224213,66.5997819 10.1586053,66.9130426 L10.1586053,66.9130426 Z" id="Shape"></path>
                        <path d="M71.6750024,66.986992 C71.8656465,66.986992 72.0596949,66.9625798 72.2528475,66.9114388 C73.4481356,66.5949707 74.159109,65.3747154 73.8407119,64.1856436 L57.1272833,1.76338298 C56.8090654,0.574489362 55.5815254,-0.132930851 54.3865956,0.18425 C53.1913075,0.500718085 52.4803341,1.7209734 52.7987312,2.90986702 L69.5119806,65.3323059 C69.778954,66.3289309 70.6848717,66.986992 71.6750024,66.986992 L71.6750024,66.986992 Z" id="Shape"></path>
                        <path d="M1.66401453,66.9114388 C1.85716707,66.9625798 2.05103632,66.986992 2.24168039,66.986992 C3.23181114,66.986992 4.13772881,66.3289309 4.404523,65.3323059 L21.1179516,2.90986702 C21.4361695,1.7209734 20.7253753,0.500718085 19.529908,0.18425 C18.3346199,-0.13275266 17.1076174,0.574845745 16.7893995,1.76338298 L0.0759709443,64.1856436 C-0.242246973,65.3747154 0.468726392,66.5949707 1.66401453,66.9114388 L1.66401453,66.9114388 Z" id="Shape"></path>
                        <path d="M36.958431,55.1465239 C35.7213947,55.1465239 34.7187215,56.1440399 34.7187215,57.3739176 L34.7187215,63.1790399 C34.7187215,64.4090957 35.7213947,65.4064335 36.958431,65.4064335 C38.1954673,65.4064335 39.1981404,64.4090957 39.1981404,63.1790399 L39.1981404,57.3739176 C39.1981404,56.1440399 38.1954673,55.1465239 36.958431,55.1465239 L36.958431,55.1465239 Z" id="Shape"></path>
                        <path d="M39.1981404,39.5547686 C39.1981404,38.324891 38.1954673,37.327375 36.958431,37.327375 C35.7213947,37.327375 34.7187215,38.324891 34.7187215,39.5547686 L34.7187215,45.359891 C34.7187215,46.5899468 35.7213947,47.5872846 36.958431,47.5872846 C38.1954673,47.5872846 39.1981404,46.5899468 39.1981404,45.359891 L39.1981404,39.5547686 L39.1981404,39.5547686 Z" id="Shape"></path>
                        <path d="M39.1981404,21.7356197 C39.1981404,20.5055638 38.1954673,19.5082261 36.958431,19.5082261 C35.7213947,19.5082261 34.7187215,20.5055638 34.7187215,21.7356197 L34.7187215,27.540742 C34.7187215,28.7707979 35.7213947,29.7681356 36.958431,29.7681356 C38.1954673,29.7681356 39.1981404,28.7707979 39.1981404,27.540742 L39.1981404,21.7356197 L39.1981404,21.7356197 Z" id="Shape"></path>
                        <path d="M39.1981404,3.91647074 C39.1981404,2.68641489 38.1954673,1.68907713 36.958431,1.68907713 C35.7213947,1.68907713 34.7187215,2.68641489 34.7187215,3.91647074 L34.7187215,9.72159309 C34.7187215,10.9516489 35.7213947,11.9489867 36.958431,11.9489867 C38.1954673,11.9489867 39.1981404,10.9516489 39.1981404,9.72159309 L39.1981404,3.91647074 L39.1981404,3.91647074 Z" id="Shape"></path>
                    </g>
                </g>
            </g>
            <g id="bridge-icon" transform="translate(352.000000, 533.000000)">
                <rect id="bridge-icon-bg" fill="#EEE8D5" x="0" y="0" width="94" height="80"></rect>
                <g id="monuments" transform="translate(9.000000, 19.000000)" fill="#073642">
                    <path d="M75.5554,17.934 L75.5554,16.002 C70.6192,12.5055 66.8496,6.96675 65.1092,0.25725 L65.037,0.29925 L65.037,0.19425 L60.135,0.19425 L60.135,0.24675 L60.0856,0.2205 C57.0228,12.012 48.0472,18.22275 37.734,18.22275 C27.4246,18.22275 18.449,12.01725 15.3862,0.24675 L15.2912,0.29925 L15.2912,0.19425 L10.412,0.19425 L10.412,0.462 C8.6336,7.077 4.8944,12.558 0,16.00725 L0,17.934 C0.8816,17.367 1.7062,16.674 2.5194,15.9705 L2.5194,25.07925 L0.0342,25.07925 L0.0342,28.791 L10.412,28.791 L10.412,41.18625 L15.2912,41.18625 L15.2912,28.791 L60.135,28.791 L60.135,41.18625 L65.037,41.18625 L65.037,28.791 L75.5554,28.791 L75.5554,25.08975 L73.074,25.08975 L73.074,15.98625 C73.8758,16.66875 74.6852,17.3565 75.5554,17.934 L75.5554,17.934 Z M7.011,25.08975 L3.1958,25.08975 L3.1958,15.456 C4.6094,14.154 5.8596,12.6105 7.011,10.96725 L7.011,25.08975 L7.011,25.08975 Z M10.412,25.08975 L7.6836,25.08975 L7.6836,9.954 C8.721,8.358 9.6634,6.6675 10.412,4.83 L10.412,25.08975 L10.412,25.08975 Z M18.278,25.08975 L15.2912,25.08975 L15.2912,4.473 C16.0968,6.5625 17.1342,8.37375 18.278,10.03275 L18.278,25.08975 L18.278,25.08975 Z M23.7044,25.08975 L18.9582,25.08975 L18.9582,11.046 C20.3528,12.86775 21.9564,14.364 23.7044,15.6135 L23.7044,25.08975 L23.7044,25.08975 Z M29.1346,25.08975 L24.3884,25.08975 L24.3884,16.12275 C25.8666,17.1045 27.474,17.829 29.1346,18.417 L29.1346,25.08975 L29.1346,25.08975 Z M34.5648,25.08975 L29.8148,25.08975 L29.8148,18.67425 C31.35,19.16775 32.9232,19.53525 34.5648,19.72425 L34.5648,25.08975 L34.5648,25.08975 Z M39.995,25.08975 L35.245,25.08975 L35.245,19.76625 C36.0696,19.8555 36.8904,19.9395 37.734,19.9395 C38.4978,19.9395 39.2464,19.85025 39.995,19.79775 L39.995,25.08975 L39.995,25.08975 Z M45.4214,25.08975 L40.6714,25.08975 L40.6714,19.74 C42.3092,19.56675 43.8862,19.23075 45.4214,18.753 L45.4214,25.08975 L45.4214,25.08975 Z M50.8478,25.08975 L46.1016,25.08975 L46.1016,18.522 C47.766,17.9445 49.362,17.22 50.8478,16.26975 L50.8478,25.08975 L50.8478,25.08975 Z M56.2818,25.08975 L51.5242,25.08975 L51.5242,15.792 C53.276,14.58975 54.8796,13.13025 56.2818,11.37675 L56.2818,25.08975 L56.2818,25.08975 Z M60.135,25.08975 L56.9544,25.08975 L56.9544,10.3845 C58.1856,8.673 59.2762,6.7725 60.135,4.57275 L60.135,25.08975 L60.135,25.08975 Z M67.9022,25.08975 L65.037,25.08975 L65.037,4.47825 C65.8008,6.4575 66.8078,8.2635 67.9022,9.96975 L67.9022,25.08975 L67.9022,25.08975 Z M72.409,25.08975 L68.5786,25.08975 L68.5786,10.97775 C69.7376,12.61575 70.9916,14.14875 72.409,15.45075 L72.409,25.08975 L72.409,25.08975 Z" id="Shape"></path>
                </g>
            </g>
            <g id="tunnel-icon" transform="translate(352.000000, 403.000000)">
                <rect id="tunnel-icon-bg" fill="#EEE8D5" x="0" y="0" width="94" height="80"></rect>
                <g id="road-tunnel" transform="translate(18.000000, 8.000000)" fill="#073642">
                    <g id="Group">
                        <path d="M40.9249083,40.5757299 L48.9348765,63.5405083 C49.1773601,64.2356628 49.8305192,64.7008091 50.5639079,64.7008091 L56.8655818,64.7008091 C57.8186694,64.7008091 58.5916895,63.9249645 58.5916895,62.9677753 L58.5916895,29.4134667 C58.5916895,13.1949039 45.4495199,0 29.2957757,0 C13.1418934,0 0,13.1947653 0,29.4134667 L0,62.9677753 C0,63.9249645 0.772881974,64.7008091 1.72610768,64.7008091 L8.02750541,64.7008091 C8.76089404,64.7008091 9.41419128,64.2356628 9.65667488,63.5405083 L17.6670573,40.5747594 C17.8174358,40.3177158 17.9036031,40.0182476 17.9036031,39.6985375 L17.9036031,32.2118312 C17.9036031,26.5252618 22.073465,21.7463863 27.5698061,20.9075979 L27.5698061,27.5897605 C27.5698061,28.5468111 28.3426881,29.3227944 29.2959138,29.3227944 C30.2492776,29.3227944 31.0220215,28.5468111 31.0220215,27.5897605 L31.0220215,20.9073206 C36.5180864,21.7458317 40.6882245,26.5249845 40.6882245,32.2115539 L40.6882245,39.6982602 C40.6878102,40.0185249 40.7743917,40.3185477 40.9249083,40.5757299 Z" id="Shape"></path>
                        <path d="M30.7670302,33.6821864 C30.7670302,32.7251358 29.9941482,31.9491525 29.0409225,31.9491525 C28.0876968,31.9491525 27.3148148,32.7251358 27.3148148,33.6821864 L27.3148148,44.20905 C27.3148148,45.1662393 28.0876968,45.9420839 29.0409225,45.9420839 C29.9941482,45.9420839 30.7670302,45.1662393 30.7670302,44.20905 L30.7670302,33.6821864 L30.7670302,33.6821864 Z" id="Shape"></path>
                        <path d="M29.0409225,50.6779661 C28.0876968,50.6779661 27.3148148,51.4539493 27.3148148,52.411 L27.3148148,60.036349 C27.3148148,60.9933996 28.0876968,61.7693829 29.0409225,61.7693829 C29.9941482,61.7693829 30.7670302,60.9933996 30.7670302,60.036349 L30.7670302,52.411 C30.7668921,51.4539493 29.9941482,50.6779661 29.0409225,50.6779661 L29.0409225,50.6779661 Z" id="Shape"></path>
                    </g>
                </g>
            </g>
            <g id="greentree-icon" transform="translate(352.000000, 273.000000)">
                <rect id="greentree-icon-bg" fill-opacity="0.4" fill="#B58900" x="0" y="0" width="94" height="80"></rect>
                <g id="river-trail" transform="translate(21.000000, 6.000000)" fill="#073642">
                    <g id="Group">
                        <path d="M47.3658622,64.91807 C47.3220353,64.91722 42.9306795,64.82117 38.2184359,63.59088 C34.0096923,62.49217 28.6906667,60.24256 27.2528718,55.76578 C24.6906955,47.78853 33.1747724,36.48659 39.9918974,27.40536 C45.2191923,20.44216 49.3479263,14.94215 49.0421571,11.11664 C48.8551282,8.77659 46.9571506,6.53973 43.4010545,4.46811 C40.7563205,2.9274 37.1541891,1.4399 32.6947147,0.04658 C32.1572404,-0.12121 31.5857917,0.1785 31.4179583,0.71621 C31.2502949,1.25392 31.5497788,1.82597 32.0870833,1.99376 C44.7415128,5.94745 46.8684776,9.50844 47.0099808,11.27916 C47.2542564,14.3344 42.9349263,20.08839 38.3619776,26.18 C30.8927147,36.12993 22.426984,47.40739 25.3120865,56.38985 C28.5552788,66.48768 46.5623686,66.94311 47.3273013,66.95756 C47.3339263,66.95756 47.3403814,66.95773 47.3468365,66.95773 C47.9007885,66.95773 48.3550256,66.51369 48.3655577,65.95694 C48.3764295,65.3939 47.9286474,64.92861 47.3658622,64.91807 L47.3658622,64.91807 Z" id="Shape"></path>
                        <path d="M34.0443462,15.26039 C34.7299487,13.20237 34.5311987,11.22 33.4538718,9.36887 C29.7824327,3.05949 16.8365032,0.4454 16.2871378,0.33711 C15.7350545,0.22797 15.1989391,0.5882 15.0902212,1.14087 C14.9815032,1.69354 15.3411218,2.22989 15.8935449,2.33869 C15.9253109,2.34498 19.1020833,2.97806 22.6671827,4.32089 C27.2673109,6.05353 30.3883654,8.15405 31.692641,10.3955 C32.4730321,11.73663 32.6097788,13.11703 32.1106955,14.61541 C31.4079359,16.72511 26.7858942,20.63834 21.8923974,24.78124 C16.4622756,29.37838 10.3078205,34.58888 5.88266026,40.06492 C0.555990385,46.65667 -1.08208333,52.241 0.874839744,57.13683 C2.60583333,61.46792 5.35571795,64.9519 9.28111538,67.78784 C9.4616891,67.91823 9.67012179,67.98096 9.87685577,67.98096 C10.1929872,67.98096 10.5048718,67.83408 10.7041314,67.55783 C11.0335128,67.10104 10.9307404,66.46354 10.4742949,66.13391 C6.87165385,63.53104 4.35058654,60.34031 2.76738141,56.37914 C-1.03570833,46.86424 12.9771859,35.00096 23.208734,26.33861 C28.7689776,21.63114 33.1608429,17.9129 34.0443462,15.26039 L34.0443462,15.26039 Z" id="Shape"></path>
                        <path d="M7.96953526,21.79213 C7.61569231,22.23039 7.6838109,22.87248 8.12157051,23.22659 C8.55933013,23.5807 9.2009359,23.51253 9.55494872,23.07444 L11.3814103,20.81276 L11.3814103,25.61917 C11.3814103,26.18238 11.8376859,26.63917 12.400641,26.63917 C12.9635962,26.63917 13.4198718,26.18238 13.4198718,25.61917 L13.4198718,20.81276 L15.2463333,23.07444 C15.4478013,23.32383 15.742359,23.45337 16.0396346,23.45337 C16.2645449,23.45337 16.490984,23.37925 16.6797115,23.22676 C17.1174712,22.87265 17.1855897,22.23056 16.8317468,21.7923 L13.4198718,17.56712 L13.4198718,15.65377 L15.2463333,17.91562 C15.4478013,18.16501 15.742359,18.29455 16.0396346,18.29455 C16.2645449,18.29455 16.490984,18.22043 16.6797115,18.06794 C17.1174712,17.71383 17.1855897,17.07174 16.8317468,16.63348 L13.4198718,12.4083 L13.4198718,10.49478 L15.2463333,12.75646 C15.4478013,13.00585 15.742359,13.13539 16.0396346,13.13539 C16.2645449,13.13539 16.490984,13.0611 16.6797115,12.90878 C17.1174712,12.55467 17.1855897,11.91241 16.8317468,11.47432 L13.1934327,6.96881 C12.9999487,6.72911 12.7086186,6.58988 12.400641,6.58988 C12.0926635,6.58988 11.8015032,6.72911 11.6078494,6.96881 L7.96953526,11.47432 C7.61569231,11.91241 7.6838109,12.55467 8.12157051,12.90878 C8.55933013,13.26272 9.2009359,13.19472 9.55494872,12.75646 L11.3814103,10.49478 L11.3814103,12.4083 L7.96953526,16.63331 C7.61569231,17.07157 7.6838109,17.71366 8.12157051,18.06777 C8.55933013,18.42188 9.2009359,18.35371 9.55494872,17.91562 L11.3814103,15.65377 L11.3814103,17.56712 L7.96953526,21.79213 L7.96953526,21.79213 Z" id="Shape"></path>
                        <path d="M51.0913205,44.30404 C51.2927885,44.55343 51.5873462,44.68297 51.8846218,44.68297 C52.1095321,44.68297 52.3359712,44.60885 52.5246987,44.45636 C52.9624583,44.10225 53.0305769,43.46016 52.676734,43.0219 L47.3942308,36.48047 L47.3942308,31.91478 L51.0911506,36.49271 C51.2926186,36.7421 51.5871763,36.87164 51.8844519,36.87164 C52.1093622,36.87164 52.3358013,36.79752 52.5245288,36.64503 C52.9622885,36.29092 53.0304071,35.64883 52.6765641,35.21057 L47.1676218,28.38881 C46.9741378,28.14928 46.6828077,28.00988 46.3748301,28.00988 C46.0668526,28.00988 45.7756923,28.14911 45.5820385,28.38881 L40.0730962,35.21057 C39.7192532,35.64883 39.7873718,36.29092 40.2251314,36.64503 C40.662891,36.99914 41.3044968,36.93097 41.6585096,36.49288 L45.3557692,31.91495 L45.3557692,36.48064 L40.0734359,43.0219 C39.7195929,43.46016 39.7877115,44.10225 40.2254712,44.45636 C40.6632308,44.81047 41.3048365,44.7423 41.6588494,44.30421 L45.3557692,39.72611 L45.3557692,44.2918 L40.0734359,50.83306 C39.7195929,51.27132 39.7877115,51.91341 40.2254712,52.26752 C40.6632308,52.62163 41.3048365,52.55346 41.6588494,52.11537 L45.3557692,47.53727 L45.3557692,56.30417 C45.3557692,56.86738 45.8122147,57.32417 46.375,57.32417 C46.9377853,57.32417 47.3942308,56.86738 47.3942308,56.30417 L47.3942308,47.53727 L51.0911506,52.1152 C51.2926186,52.36459 51.5871763,52.49413 51.8844519,52.49413 C52.1093622,52.49413 52.3358013,52.42001 52.5245288,52.26752 C52.9622885,51.91341 53.0304071,51.27132 52.6765641,50.83306 L47.3942308,44.2918 L47.3942308,39.72611 L51.0913205,44.30404 L51.0913205,44.30404 Z" id="Shape"></path>
                    </g>
                </g>
            </g>
            <g id="river-icon" transform="translate(352.000000, 143.000000)">
                <rect id="river-icon-bg" fill="#EEE8D5" x="0" y="0" width="94" height="80"></rect>
                <g id="water" transform="translate(4.000000, 30.000000)" fill="#073642">
                    <path d="M1.16593436,7.982688 L1.17030116,7.982688 C1.17030116,7.95564 1.16593436,7.93296 1.1676139,7.905576 C1.20909846,7.312536 1.72773938,6.870024 2.31960811,6.904968 L2.32985328,6.904968 L2.33690734,6.904968 C2.64157529,6.924624 8.50080695,7.234416 11.2770811,4.641168 C12.2255154,3.755472 12.6877239,2.638944 12.6877239,1.229592 C12.6877239,0.63252 13.1704228,0.149856 13.7661544,0.149856 L13.7680019,0.149856 C14.3635656,0.149856 14.8474402,0.63336 14.8474402,1.229592 C14.8474402,2.638944 15.3072973,3.755472 16.2574112,4.641168 C18.4539093,6.693456 22.58389,6.927816 24.3616795,6.924624 C26.3534421,6.875064 29.7929653,6.507816 31.7397162,4.70148 C32.704778,3.809736 33.172529,2.670696 33.172529,1.229592 C33.172529,0.63252 33.6570753,0.149856 34.2531429,0.149856 C34.8487066,0.149856 35.3324131,0.63336 35.3324131,1.229592 C35.3324131,2.638944 35.7934459,3.755472 36.7422162,4.641168 C38.7870521,6.552 42.5065541,6.884304 44.4465869,6.921936 C46.4538012,6.860784 49.7991023,6.472032 51.7110869,4.70148 C52.674805,3.809736 53.1437317,2.670696 53.1437317,1.229592 C53.1437317,0.63252 53.6277741,0.149856 54.2236737,0.149856 C54.8199093,0.149856 55.3036158,0.63336 55.3036158,1.229592 C55.3036158,2.638944 55.7638089,3.755472 56.7122432,4.641168 C58.7708514,6.564264 62.5244479,6.889344 64.4528919,6.921936 C66.4580907,6.860784 69.8151486,6.476736 71.7311641,4.70148 C72.6962259,3.809736 73.1653205,2.670696 73.1653205,1.229592 C73.1653205,0.63252 73.6493629,0.149856 74.2442548,0.149856 C74.8435135,0.149856 75.3252046,0.63336 75.3252046,1.229592 C75.3252046,2.638944 75.7862375,3.755472 76.7346718,4.641168 C79.5717452,7.289184 85.6294981,6.909504 85.6908012,6.904968 C86.2843494,6.870024 86.8018147,7.312536 86.8426274,7.905576 C86.8844479,8.502648 86.4363475,9.01656 85.8412876,9.058896 C85.5559344,9.078552 78.7944556,9.513504 75.2649093,6.223728 C74.8766004,5.861016 74.5380058,5.46588 74.2553398,5.043864 C73.449834,6.279 72.1962278,7.258944 70.52089,7.945896 C69.0806873,8.537592 67.5113282,8.828904 66.1687066,8.96952 C66.0590328,9.016392 65.9431448,9.052344 65.8200347,9.058728 C65.7468069,9.064272 65.2300135,9.09636 64.4507085,9.08712 C64.2194363,9.091656 64.0076467,9.09636 63.8202104,9.09636 C63.2029807,9.09636 62.6510849,9.094512 62.2579054,8.947344 C59.9954015,8.692824 57.148083,8.000496 55.2439923,6.22356 C54.8521564,5.860848 54.5157452,5.465712 54.2339189,5.043696 C53.4275734,6.278832 52.1739672,7.258776 50.4996371,7.945728 C49.082444,8.524992 47.5429807,8.817816 46.2171544,8.961624 C46.102778,9.014376 45.979668,9.052176 45.8484961,9.058728 C45.7740927,9.064272 45.2426873,9.099216 44.4432278,9.08712 C44.2080927,9.091656 43.9897529,9.09636 43.7966062,9.09636 C43.1691313,9.09636 42.6138764,9.091824 42.220529,8.939952 C39.9674305,8.677536 37.1573977,7.98252 35.2706062,6.22356 C34.8792741,5.860848 34.5428629,5.465712 34.2617085,5.043696 C33.455027,6.278832 32.2015888,7.258776 30.5265869,7.945728 C28.8510811,8.633856 27.0020792,8.916432 25.5356757,9.028656 C25.4782355,9.04428 25.4218031,9.05604 25.3598282,9.057552 C25.3307722,9.06024 25.2278166,9.068136 25.0697722,9.072672 C24.8010463,9.093504 24.5030965,9.095184 24.1880154,9.095184 C24.1307432,9.095184 24.0675927,9.093504 24.0056178,9.093504 C23.9436429,9.093504 23.881668,9.095184 23.8240598,9.095184 C23.3833494,9.095184 22.9790849,9.093504 22.637971,9.040584 C21.1490618,8.937096 19.2254884,8.657712 17.4863282,7.944888 C15.8197239,7.258608 14.5684691,6.284712 13.763971,5.057808 C12.9559459,6.285552 11.7055309,7.259616 10.0379189,7.944888 C7.59839189,8.945496 4.79205405,9.095352 3.33656757,9.095352 C3.02131853,9.095352 2.72336873,9.093672 2.45548263,9.07284 C2.29743822,9.068304 2.19498649,9.060408 2.1637471,9.05772 C1.98302896,9.045792 1.81826641,8.986992 1.67248263,8.894088 C1.40879537,8.766744 1.23681081,8.548512 1.18592085,8.193696 C1.17567568,8.140776 1.16878958,8.089368 1.16627027,8.0346 C1.17030116,8.016624 1.16593436,8.003352 1.16593436,7.982688 L1.16593436,7.982688 Z M84.5283938,18.674376 C84.4682664,18.67908 78.4091699,19.060776 75.5719286,16.414104 C74.6234942,15.527064 74.1619575,14.411712 74.1619575,12.99984 C74.1619575,12.402096 73.6795946,11.92044 73.0821834,11.92044 C72.4869556,11.92044 72.0030811,12.402096 72.0030811,12.99984 C72.0030811,14.443128 71.5334826,15.579648 70.5694286,16.471896 C68.6522375,18.249 65.2951795,18.632208 63.2896448,18.694032 C61.3606969,18.660096 57.6091158,18.333672 55.5505077,16.412256 C54.6010656,15.52656 54.1405367,14.4102 54.1405367,12.99816 C54.1405367,12.402264 53.6564942,11.919768 53.0614344,11.919768 C52.464527,11.919768 51.9806525,12.402264 51.9806525,12.99816 C51.9806525,14.441448 51.5118938,15.577632 50.5480077,16.471224 C48.6361911,18.242784 45.2922336,18.628848 43.2843475,18.690336 C41.3438108,18.65556 37.6248127,18.319896 35.579473,16.412256 C34.6310386,15.525216 34.1698378,14.4102 34.1698378,12.99816 C34.1698378,12.400584 33.6852915,11.91876 33.0903996,11.91876 C32.4936602,11.91876 32.0097857,12.400584 32.0097857,12.99816 C32.0097857,14.44044 31.5420347,15.576792 30.5774768,16.470216 C28.6307259,18.274872 25.1906988,18.642456 23.1994402,18.694032 C21.4208108,18.694032 17.291166,18.464208 15.094668,16.410408 C14.1450579,15.524208 13.6852008,14.408016 13.6852008,12.996144 C13.6852008,12.399576 13.2004865,11.91792 12.6057625,11.91792 L12.6037471,11.91792 C12.0070077,11.91792 11.5251486,12.399576 11.5251486,12.996144 C11.5251486,14.408016 11.0632761,15.524208 10.1145058,16.410408 C7.33856757,19.001304 1.47916795,18.692184 1.17416409,18.673704 C1.17214865,18.673704 1.1676139,18.671856 1.1676139,18.671856 L1.15736873,18.671856 C0.565164093,18.638928 0.0468590734,19.080096 0.00537451737,19.675992 C0.00369498069,19.699848 0.00806177606,19.725552 0.00806177606,19.749408 L0,19.749408 C0,19.768728 0.00554247104,19.784352 0.00554247104,19.80468 C0.00822972973,19.856088 0.0147799228,19.907496 0.0253610039,19.96092 C0.0759150579,20.315568 0.247395753,20.534472 0.51192278,20.664168 C0.65753861,20.754216 0.822637066,20.815872 1.00335521,20.827968 C1.03308301,20.830824 1.13704633,20.836368 1.29492278,20.843592 C1.56196911,20.86392 1.86008687,20.86392 2.17583977,20.86392 C3.63166216,20.86392 6.43783205,20.714904 8.87702317,19.71312 C10.5446351,19.029864 11.7953861,18.054288 12.6027394,16.826208 C13.4074054,18.054288 14.659332,19.030704 16.3257683,19.71312 C18.0650965,20.426112 19.9886699,20.707512 21.4775792,20.808816 C21.8170135,20.862072 22.2229575,20.863752 22.663332,20.863752 L22.8452259,20.863752 L23.0274556,20.863752 C23.3427046,20.863752 23.6391429,20.863752 23.9092124,20.843424 C24.0672568,20.8362 24.1688687,20.830656 24.1991004,20.8278 C24.2602355,20.823264 24.3178436,20.810328 24.3751158,20.799408 C25.8413514,20.687184 27.6898494,20.401248 29.3656911,19.712952 C31.0400212,19.025832 32.2936274,18.046056 33.1011486,16.811424 C33.3823031,17.23596 33.7180425,17.628072 34.1097104,17.99364 C35.9968378,19.753272 38.8070386,20.44644 41.0599691,20.707344 C41.4533166,20.862072 42.0084035,20.863752 42.6362143,20.863752 C42.8280174,20.863752 43.0471969,20.862072 43.282668,20.854344 C44.0839749,20.866272 44.6140367,20.833176 44.6876004,20.82864 C44.819612,20.818392 44.94289,20.783616 45.0557548,20.731368 C46.3822529,20.588736 47.9222201,20.295576 49.3385734,19.712952 C51.0122317,19.025832 52.2656699,18.046056 53.0725193,16.811424 C53.3556892,17.23596 53.6910927,17.628072 54.0825927,17.99364 C55.9878591,19.770576 58.8340019,20.459208 61.0978494,20.714736 C61.4915328,20.862072 62.0414131,20.863752 62.6583069,20.863752 C62.8475907,20.863752 63.0583726,20.862072 63.2896448,20.854344 C64.0699575,20.866272 64.5854073,20.833176 64.6581313,20.82864 C64.7829208,20.818392 64.8989768,20.786304 65.007139,20.740608 C66.3512722,20.597976 67.9197915,20.304648 69.3601622,19.71312 C71.0344923,19.026 72.2882664,18.046224 73.0951158,16.811592 C73.3769421,17.236128 73.7141931,17.62824 74.1038456,17.993808 C77.6333919,21.28392 84.3962143,20.849136 84.6803919,20.828808 C85.2762915,20.786472 85.7247278,20.27004 85.6824035,19.677168 C85.6380637,19.081944 85.1219421,18.64212 84.5283938,18.674376 L84.5283938,18.674376 Z" id="Shape"></path>
                </g>
            </g>
            <g id="i279-text" transform="translate(25.000000, 663.000000)">
                <rect id="i279-text-bg" fill="#EEE8D5" x="0" y="0" width="266" height="80"></rect>
                <text id="Average-speed" font-family="Overpass-Reg, Overpass" font-size="18" font-weight="normal" fill="#073642">
                    <tspan x="72.4169922" y="69">Average speed</tspan>
                </text>
                <text id="I-279-Traffic-Speed" font-family="Overpass-Reg, Overpass" font-size="28" font-weight="normal" fill="#073642">
                    <tspan x="12.3046875" y="43">I-279 Traffic Speed</tspan>
                </text>
            </g>
            <g id="bridge-text" transform="translate(25.000000, 533.000000)">
                <rect id="bridge-text-bg" fill="#EEE8D5" x="0" y="0" width="266" height="80"></rect>
                <text id="Stress-on-expansion" font-family="Overpass-Reg, Overpass" font-size="18" font-weight="normal" fill="#073642">
                    <tspan x="26.7841797" y="68">Stress on expansion joints</tspan>
                </text>
                <text id="Liberty-Bridge" font-family="Overpass-Reg, Overpass" font-size="28" font-weight="normal" fill="#073642">
                    <tspan x="42.0957031" y="42">Liberty Bridge</tspan>
                </text>
            </g>
            <g id="tunnel-text" transform="translate(25.000000, 403.000000)">
                <rect id="tunnel-text-bg" fill="#EEE8D5" x="0" y="0" width="266" height="80"></rect>
                <text id="Average-speed" font-family="Overpass-Reg, Overpass" font-size="18" font-weight="normal" fill="#073642">
                    <tspan x="72.4169922" y="68">Average speed</tspan>
                </text>
                <text id="Ft.-Pitt-Tunnel" font-family="Overpass-Reg, Overpass" font-size="28" font-weight="normal" fill="#073642">
                    <tspan x="43.7841797" y="42">Ft. Pitt Tunnel</tspan>
                </text>
            </g>
            <g id="greentree-text" transform="translate(25.000000, 273.000000)">
                <rect id="greentree-text-bg" fill-opacity="0.4" fill="#B58900" x="0" y="0" width="266" height="80"></rect>
                <text id="Traffic-load-in-the" font-family="Overpass-Reg, Overpass" font-size="18" font-weight="normal" fill="#073642">
                    <tspan x="22.0073242" y="68">Traffic load in the past hour</tspan>
                </text>
                <text id="Greentree-Traffic" font-family="Overpass-Reg, Overpass" font-size="28" font-weight="normal" fill="#073642">
                    <tspan x="24.4179688" y="42">Greentree Traffic</tspan>
                </text>
            </g>
            <g id="river-text" transform="translate(25.000000, 143.000000)">
                <rect id="river-text-bg" fill="#EEE8D5" x="0" y="0" width="266" height="80"></rect>
                <text id="River-crest-height" font-family="Overpass-Reg, Overpass" font-size="18" font-weight="normal" fill="#073642">
                    <tspan x="60.4638672" y="68">River crest height</tspan>
                </text>
                <text id="Mon-Wharf-River" font-family="Overpass-Reg, Overpass" font-size="28" font-weight="normal" fill="#073642">
                    <tspan x="28.1777344" y="42">Mon Wharf River</tspan>
                </text>
            </g>
            <text id="PennDOT-Status" font-family="Overpass-Reg, Overpass" font-size="48" font-weight="normal" fill="#073642">
                <tspan x="25" y="72">PennDOT Status</tspan>
            </text>
            <text id="12:53-p.m." font-family="Overpass-Reg, Overpass" font-size="48" font-weight="normal" fill="#073642">
                <tspan x="781.007812" y="72">12:53 p.m.</tspan>
            </text>
        </g>
    </g>
</svg>
